<svg width="197.01252441406248px" height="138.830029296875px" xmlns="http://www.w3.org/2000/svg" viewBox="151.49373779296877 5.584985351562494 197.01252441406248 138.830029296875" style="background: rgba(0, 0, 0, 0);" preserveAspectRatio="xMidYMid"><defs><filter id="editing-extrude-glow"><feFlood flood-color="#333333" result="flood-1"></feFlood><feMorphology operator="erode" radius="1" in="SourceAlpha" result="erode"></feMorphology><feComposite operator="in" in="flood-1" in2="erode" result="comp1"></feComposite><feConvolveMatrix order="0,0" divisor="1" in="comp1" result="convolve" kernelMatrix=""></feConvolveMatrix><feOffset dx="0" dy="0" in="convolve" result="extrude"></feOffset><feComposite operator="in" in="flood-1" in2="extrude" result="comp-extrude"></feComposite><feFlood flood-color="#000000" result="flood-2"></feFlood><feComposite operator="in" in="flood-2" in2="SourceAlpha" result="comp2"></feComposite><feMorphology operator="dilate" radius="1" in="comp2" result="dilate"></feMorphology><feOffset dx="0" dy="0" in="dilate" result="offset"></feOffset><feGaussianBlur in="offset" stdDeviation="5.8" result="blur"></feGaussianBlur><feComponentTransfer in="blur" result="shadow"><feFuncA type="linear" slope="0.8" intercept="-0.2"></feFuncA></feComponentTransfer><feMerge><feMergeNode in="shadow"></feMergeNode><feMergeNode in="comp-extrude"></feMergeNode><feMergeNode in="SourceGraphic"></feMergeNode></feMerge></filter></defs><g filter="url(#editing-extrude-glow)"><g transform="translate(184.91999697685242, 97.84499931335449)"><path d="M7.78-16.19L27.88-7.44L27.88-3.03L2.03-14.34L2.03-17.97L27.88-29.22L27.88-24.84L7.78-16.19ZM57.91-6.03L59.47-1.81L59.47-1.81Q56-0.44 52.95 0.16L52.95 0.16L52.95 0.16Q49.91 0.75 47.50 0.75L47.50 0.75L47.50 0.75Q43.81 0.75 41.06-0.42L41.06-0.42L41.06-0.42Q38.31-1.59 36.48-3.72L36.48-3.72L36.48-3.72Q34.66-5.84 33.73-8.80L33.73-8.80L33.73-8.80Q32.81-11.75 32.81-15.31L32.81-15.31L32.81-15.31Q32.81-17.50 33.13-19.69L33.13-19.69L33.13-19.69Q33.44-21.88 34.13-23.86L34.13-23.86L34.13-23.86Q34.81-25.84 35.92-27.56L35.92-27.56L35.92-27.56Q37.03-29.28 38.63-30.53L38.63-30.53L38.63-30.53Q40.22-31.78 42.34-32.50L42.34-32.50L42.34-32.50Q44.47-33.22 47.19-33.22L47.19-33.22L47.19-33.22Q54.16-33.22 57.69-28.86L57.69-28.86L57.69-28.86Q61.22-24.50 61.22-16.38L61.22-16.38L61.22-14.66L38.34-14.66L38.34-14.66Q38.34-12.03 38.91-10.02L38.91-10.02L38.91-10.02Q39.47-8 40.64-6.61L40.64-6.61L40.64-6.61Q41.81-5.22 43.61-4.50L43.61-4.50L43.61-4.50Q45.41-3.78 47.88-3.78L47.88-3.78L47.88-3.78Q49.25-3.78 50.61-3.98L50.61-3.98L50.61-3.98Q51.97-4.19 53.25-4.52L53.25-4.52L53.25-4.52Q54.53-4.84 55.70-5.25L55.70-5.25L55.70-5.25Q56.88-5.66 57.91-6.03L57.91-6.03ZM38.50-18.97L55.81-18.97L55.81-18.97Q55.56-24.03 53.39-26.36L53.39-26.36L53.39-26.36Q51.22-28.69 47.19-28.69L47.19-28.69L47.19-28.69Q43.16-28.69 41.05-26.36L41.05-26.36L41.05-26.36Q38.94-24.03 38.50-18.97L38.50-18.97ZM68.69 0L90.88-44.94L95.84-44.94L73.66 0L68.69 0ZM128.13-17.97L128.13-14.34L102.28-3.03L102.28-7.44L122.38-16.19L102.28-24.84L102.28-29.22L128.13-17.97Z" fill="#d52036"></path></g></g><style>text {
  font-size: 64px;
  font-family: Arial Black;
  dominant-baseline: central;
  text-anchor: middle;
}</style></svg>